<mxfile host="app.diagrams.net" agent="Mozilla/5.0 (Windows NT 10.0; Win64; x64) AppleWebKit/537.36 (KHTML, like Gecko) Chrome/128.0.0.0 Safari/537.36" version="24.7.12">
  <diagram name="Страница — 1" id="hDQKMBxuKBG5lj5dk2z1">
    <mxGraphModel dx="457" dy="230" grid="1" gridSize="10" guides="1" tooltips="1" connect="1" arrows="1" fold="1" page="1" pageScale="1" pageWidth="827" pageHeight="1169" math="0" shadow="0">
      <root>
        <mxCell id="0" />
        <mxCell id="1" parent="0" />
        <mxCell id="RwbIdz6LGd90N_nzUWjb-11" style="edgeStyle=orthogonalEdgeStyle;rounded=0;orthogonalLoop=1;jettySize=auto;html=1;exitX=0.5;exitY=0.5;exitDx=0;exitDy=0;exitPerimeter=0;" edge="1" parent="1" source="RwbIdz6LGd90N_nzUWjb-2" target="RwbIdz6LGd90N_nzUWjb-6">
          <mxGeometry relative="1" as="geometry" />
        </mxCell>
        <mxCell id="RwbIdz6LGd90N_nzUWjb-12" style="edgeStyle=orthogonalEdgeStyle;rounded=0;orthogonalLoop=1;jettySize=auto;html=1;exitX=0.5;exitY=0.5;exitDx=0;exitDy=0;exitPerimeter=0;entryX=0.5;entryY=0;entryDx=0;entryDy=0;" edge="1" parent="1" source="RwbIdz6LGd90N_nzUWjb-2" target="RwbIdz6LGd90N_nzUWjb-9">
          <mxGeometry relative="1" as="geometry" />
        </mxCell>
        <mxCell id="RwbIdz6LGd90N_nzUWjb-2" value="&lt;font style=&quot;font-size: 10px;&quot;&gt;Инспектор МВД&lt;/font&gt;" style="shape=umlActor;verticalLabelPosition=bottom;verticalAlign=top;html=1;outlineConnect=0;" vertex="1" parent="1">
          <mxGeometry x="355" y="120" width="20" height="40" as="geometry" />
        </mxCell>
        <mxCell id="RwbIdz6LGd90N_nzUWjb-3" value="Пользователь" style="shape=umlActor;verticalLabelPosition=bottom;verticalAlign=top;html=1;outlineConnect=0;" vertex="1" parent="1">
          <mxGeometry x="355" y="340" width="20" height="40" as="geometry" />
        </mxCell>
        <mxCell id="RwbIdz6LGd90N_nzUWjb-5" value="Администратор базы данных" style="shape=umlActor;verticalLabelPosition=bottom;verticalAlign=top;html=1;outlineConnect=0;" vertex="1" parent="1">
          <mxGeometry x="350" y="220" width="30" height="60" as="geometry" />
        </mxCell>
        <mxCell id="RwbIdz6LGd90N_nzUWjb-6" value="&lt;font style=&quot;font-size: 8px;&quot;&gt;Добавить пользователя&lt;/font&gt;" style="ellipse;whiteSpace=wrap;html=1;verticalAlign=middle;labelPosition=left;verticalLabelPosition=middle;align=right;" vertex="1" parent="1">
          <mxGeometry x="109.5" y="70" width="46.5" height="20" as="geometry" />
        </mxCell>
        <mxCell id="RwbIdz6LGd90N_nzUWjb-9" value="&lt;font style=&quot;font-size: 8px;&quot;&gt;Удалить пользователя&lt;/font&gt;" style="ellipse;whiteSpace=wrap;html=1;verticalAlign=middle;labelPosition=left;verticalLabelPosition=middle;align=right;" vertex="1" parent="1">
          <mxGeometry x="110" y="180" width="46" height="20" as="geometry" />
        </mxCell>
        <mxCell id="RwbIdz6LGd90N_nzUWjb-16" value="" style="ellipse;whiteSpace=wrap;html=1;" vertex="1" parent="1">
          <mxGeometry x="170" y="250" width="50" height="20" as="geometry" />
        </mxCell>
      </root>
    </mxGraphModel>
  </diagram>
</mxfile>
